<svg width="5" height="11" viewBox="0 0 5 11" fill="none" xmlns="http://www.w3.org/2000/svg">
<path d="M1.68677 6.83734C1.68677 6.99461 1.64013 7.14835 1.55275 7.27911C1.46538 7.40988 1.34119 7.5118 1.19589 7.57199C1.05059 7.63217 0.890704 7.64792 0.736454 7.61724C0.582204 7.58656 0.440516 7.51082 0.329308 7.39961C0.2181 7.28841 0.142367 7.14672 0.111685 6.99247C0.0810023 6.83822 0.0967496 6.67833 0.156935 6.53303C0.21712 6.38773 0.319041 6.26354 0.449807 6.17617C0.580574 6.08879 0.734314 6.04216 0.891586 6.04216C1.10248 6.04216 1.30474 6.12593 1.45386 6.27506C1.60299 6.42418 1.68677 6.62644 1.68677 6.83734ZM0.891586 3.25902C0.734314 3.25902 0.580574 3.30566 0.449807 3.39304C0.319041 3.48041 0.21712 3.6046 0.156935 3.7499C0.0967496 3.8952 0.0810023 4.05509 0.111685 4.20934C0.142367 4.36359 0.2181 4.50527 0.329308 4.61648C0.440516 4.72769 0.582204 4.80342 0.736454 4.83411C0.890704 4.86479 1.05059 4.84904 1.19589 4.78885C1.34119 4.72867 1.46538 4.62675 1.55275 4.49598C1.64013 4.36522 1.68677 4.21148 1.68677 4.0542C1.68677 3.84331 1.60299 3.64105 1.45386 3.49193C1.30474 3.3428 1.10248 3.25902 0.891586 3.25902ZM0.891586 0.475891C0.734314 0.475891 0.580574 0.522528 0.449807 0.609903C0.319041 0.697279 0.21712 0.821469 0.156935 0.966769C0.0967496 1.11207 0.0810023 1.27195 0.111685 1.4262C0.142367 1.58045 0.2181 1.72214 0.329308 1.83335C0.440516 1.94456 0.582204 2.02029 0.736454 2.05097C0.890704 2.08166 1.05059 2.06591 1.19589 2.00572C1.34119 1.94554 1.46538 1.84362 1.55275 1.71285C1.64013 1.58208 1.68677 1.42834 1.68677 1.27107C1.68677 1.06018 1.60299 0.857919 1.45386 0.708794C1.30474 0.559669 1.10248 0.475891 0.891586 0.475891ZM4.07231 8.4277C3.91504 8.4277 3.7613 8.47433 3.63053 8.56171C3.49976 8.64909 3.39784 8.77327 3.33766 8.91857C3.27747 9.06387 3.26172 9.22376 3.29241 9.37801C3.32309 9.53226 3.39882 9.67395 3.51003 9.78516C3.62124 9.89636 3.76293 9.9721 3.91718 10.0028C4.07143 10.0335 4.23131 10.0177 4.37661 9.95753C4.52191 9.89734 4.6461 9.79543 4.73348 9.66466C4.82085 9.53389 4.86749 9.38015 4.86749 9.22288C4.86749 9.01198 4.78371 8.80972 4.63459 8.6606C4.48546 8.51147 4.2832 8.4277 4.07231 8.4277ZM4.07231 5.64457C3.91504 5.64457 3.7613 5.6912 3.63053 5.77858C3.49976 5.86595 3.39784 5.99014 3.33766 6.13544C3.27747 6.28074 3.26172 6.44063 3.29241 6.59488C3.32309 6.74913 3.39882 6.89081 3.51003 7.00202C3.62124 7.11323 3.76293 7.18896 3.91718 7.21965C4.07143 7.25033 4.23131 7.23458 4.37661 7.1744C4.52191 7.11421 4.6461 7.01229 4.73348 6.88152C4.82085 6.75076 4.86749 6.59702 4.86749 6.43975C4.86749 6.22885 4.78371 6.02659 4.63459 5.87747C4.48546 5.72834 4.2832 5.64457 4.07231 5.64457ZM4.07231 2.86143C3.91504 2.86143 3.7613 2.90807 3.63053 2.99545C3.49976 3.08282 3.39784 3.20701 3.33766 3.35231C3.27747 3.49761 3.26172 3.6575 3.29241 3.81175C3.32309 3.966 3.39882 4.10768 3.51003 4.21889C3.62124 4.3301 3.76293 4.40583 3.91718 4.43652C4.07143 4.4672 4.23131 4.45145 4.37661 4.39126C4.52191 4.33108 4.6461 4.22916 4.73348 4.09839C4.82085 3.96763 4.86749 3.81389 4.86749 3.65661C4.86749 3.44572 4.78371 3.24346 4.63459 3.09434C4.48546 2.94521 4.2832 2.86143 4.07231 2.86143Z" fill="#ABABAF" fill-opacity="0.38"/>
</svg>
