<?xml version="1.0" encoding="UTF-8" standalone="no"?>
<svg
   xmlns:dc="http://purl.org/dc/elements/1.1/"
   xmlns:cc="http://creativecommons.org/ns#"
   xmlns:rdf="http://www.w3.org/1999/02/22-rdf-syntax-ns#"
   xmlns:svg="http://www.w3.org/2000/svg"
   xmlns="http://www.w3.org/2000/svg"
   xmlns:sodipodi="http://sodipodi.sourceforge.net/DTD/sodipodi-0.dtd"
   xmlns:inkscape="http://www.inkscape.org/namespaces/inkscape"
   width="139"
   height="137"
   viewBox="0 0 139 137"
   fill="none"
   version="1.1"
   id="svg43"
   sodipodi:docname="Pie Chart1.svg"
   inkscape:version="0.92.1 r15371">
  <metadata
     id="metadata47">
    <rdf:RDF>
      <cc:Work
         rdf:about="">
        <dc:format>image/svg+xml</dc:format>
        <dc:type
           rdf:resource="http://purl.org/dc/dcmitype/StillImage" />
        <dc:title></dc:title>
      </cc:Work>
    </rdf:RDF>
  </metadata>
  <sodipodi:namedview
     pagecolor="#ffffff"
     bordercolor="#666666"
     borderopacity="1"
     objecttolerance="10"
     gridtolerance="10"
     guidetolerance="10"
     inkscape:pageopacity="0"
     inkscape:pageshadow="2"
     inkscape:window-width="1366"
     inkscape:window-height="705"
     id="namedview45"
     showgrid="false"
     inkscape:zoom="3.9124088"
     inkscape:cx="69.5"
     inkscape:cy="68.5"
     inkscape:window-x="-8"
     inkscape:window-y="-8"
     inkscape:window-maximized="1"
     inkscape:current-layer="Group 1000008711" />
  <rect
     width="139"
     height="137"
     fill="#1E1E1E"
     id="rect10" />
  <g
     id="Dashboard "
     clip-path="url(#clip0_0_1)">
    <rect
       width="1440"
       height="820"
       transform="translate(-676 -123.125)"
       fill="#F6F6F6"
       id="rect12" />
    <g
       id="Group 1000011368">
      <g
         id="Group 1000011053">
        <rect
           id="Rectangle 5010"
           x="-69.6367"
           y="-47.6367"
           width="278.273"
           height="255.023"
           rx="5.44922"
           fill="white"
           stroke="#E7E7E7"
           stroke-width="0.726562" />
      </g>
      <g
         id="Group 1000008711">
        <g
           id="Pie Chart">
          <g
             id="Medium">
            <circle
               id="Medium Crcle"
               cx="70.8334"
               cy="68.5241"
               r="62.4068"
               stroke="#E5E5EF"
               stroke-width="10.1395" />
            <g
               id="Medium Fill">
              <mask
                 id="path-3-inside-1_0_1"
                 fill="white">
                <path
                   d="M69.5 6.02545C69.5 3.07306 71.8969 0.65854 74.8407 0.882822C82.076 1.43405 89.1889 3.10292 95.9141 5.83759C104.288 9.24283 111.898 14.234 118.307 20.526C124.716 26.8181 129.801 34.2879 133.269 42.5089C136.738 50.7298 138.523 59.541 138.523 68.4394C138.523 77.3377 136.738 86.1489 133.269 94.3699C129.801 102.591 124.716 110.061 118.307 116.353C111.898 122.645 104.288 127.636 95.9141 131.041C89.1889 133.776 82.076 135.445 74.8407 135.996C71.8968 136.22 69.5 133.806 69.5 130.853C69.5 127.901 71.8982 125.533 74.8386 125.266C80.6423 124.741 86.3429 123.361 91.7464 121.163C98.7993 118.296 105.208 114.092 110.606 108.793C116.004 103.493 120.286 97.2022 123.207 90.2784C126.129 83.3546 127.633 75.9337 127.633 68.4394C127.633 60.9451 126.129 53.5241 123.207 46.6003C120.286 39.6765 116.004 33.3853 110.606 28.0861C105.208 22.7868 98.7993 18.5832 91.7464 15.7153C86.343 13.5181 80.6423 12.1378 74.8386 11.6124C71.8982 11.3461 69.5 8.97783 69.5 6.02545Z"
                   id="path17" />
              </mask>
              <path
                 d="M69.5 6.02545C69.5 3.07306 71.8969 0.65854 74.8407 0.882822C82.076 1.43405 89.1889 3.10292 95.9141 5.83759C104.288 9.24283 111.898 14.234 118.307 20.526C124.716 26.8181 129.801 34.2879 133.269 42.5089C136.738 50.7298 138.523 59.541 138.523 68.4394C138.523 77.3377 136.738 86.1489 133.269 94.3699C129.801 102.591 124.716 110.061 118.307 116.353C111.898 122.645 104.288 127.636 95.9141 131.041C89.1889 133.776 82.076 135.445 74.8407 135.996C71.8968 136.22 69.5 133.806 69.5 130.853C69.5 127.901 71.8982 125.533 74.8386 125.266C80.6423 124.741 86.3429 123.361 91.7464 121.163C98.7993 118.296 105.208 114.092 110.606 108.793C116.004 103.493 120.286 97.2022 123.207 90.2784C126.129 83.3546 127.633 75.9337 127.633 68.4394C127.633 60.9451 126.129 53.5241 123.207 46.6003C120.286 39.6765 116.004 33.3853 110.606 28.0861C105.208 22.7868 98.7993 18.5832 91.7464 15.7153C86.343 13.5181 80.6423 12.1378 74.8386 11.6124C71.8982 11.3461 69.5 8.97783 69.5 6.02545Z"
                 stroke="#0771DE"
                 stroke-width="20.279"
                 stroke-linecap="round"
                 stroke-linejoin="round"
                 mask="url(#path-3-inside-1_0_1)"
                 id="path20" />
            </g>
          </g>
          <g
             id="Inner">
            <circle
               id="Inner Circle"
               cx="71.0774"
               cy="68.423"
               r="40.8718"
               transform="rotate(135 71.0774 68.423)"
               stroke="#E5E5EF"
               stroke-width="8.87205" />
            <g
               id="Inner Fill">
              <mask
                 id="path-5-inside-2_0_1"
                 fill="white">
                <path
                   d="M111.622 68.2795C114.324 68.2545 116.546 70.4576 116.23 73.141C115.451 79.7616 113.227 86.1783 109.693 91.9268C105.292 99.0867 99.0273 104.934 91.5857 108.828C84.1441 112.723 75.8121 114.514 67.5019 114.007C60.8395 113.6 54.3969 111.728 48.6237 108.548C46.2567 107.245 45.7477 104.161 47.3181 101.962C48.875 99.7823 51.8884 99.3028 54.2704 100.529C58.5903 102.752 63.3531 104.065 68.2679 104.365C74.8115 104.765 81.3721 103.354 87.2317 100.287C93.0912 97.221 98.0239 92.6168 101.49 86.979C104.119 82.7021 105.827 77.9553 106.525 73.0471C106.895 70.4411 108.99 68.3038 111.622 68.2795Z"
                   id="path25" />
              </mask>
              <path
                 d="M111.622 68.2795C114.324 68.2545 116.546 70.4576 116.23 73.141C115.451 79.7616 113.227 86.1783 109.693 91.9268C105.292 99.0867 99.0273 104.934 91.5857 108.828C84.1441 112.723 75.8121 114.514 67.5019 114.007C60.8395 113.6 54.3969 111.728 48.6237 108.548C46.2567 107.245 45.7477 104.161 47.3181 101.962C48.875 99.7823 51.8884 99.3028 54.2704 100.529C58.5903 102.752 63.3531 104.065 68.2679 104.365C74.8115 104.765 81.3721 103.354 87.2317 100.287C93.0912 97.221 98.0239 92.6168 101.49 86.979C104.119 82.7021 105.827 77.9553 106.525 73.0471C106.895 70.4411 108.99 68.3038 111.622 68.2795Z"
                 stroke="#FDB841"
                 stroke-width="17.9955"
                 stroke-linecap="round"
                 stroke-linejoin="round"
                 mask="url(#path-5-inside-2_0_1)"
                 id="path28" />
            </g>
          </g>
        </g>
      </g>
    </g>
  </g>
  <defs
     id="defs41">
    <clipPath
       id="clip0_0_1">
      <rect
         width="1440"
         height="820"
         fill="white"
         transform="translate(-676 -123.125)"
         id="rect38" />
    </clipPath>
  </defs>
</svg>
