<svg width="139" height="28" viewBox="0 0 139 28" fill="none" xmlns="http://www.w3.org/2000/svg">
<rect x="112" y="0.700012" width="26.6" height="26.6" rx="6.65" fill="#0771DE" fill-opacity="0.1"/>
<path d="M123.083 14.1108H126.963M123.083 16.3275H125.511M124.192 10.675H126.408C127.517 10.675 127.517 10.1208 127.517 9.56668C127.517 8.45834 126.963 8.45834 126.408 8.45834H124.192C123.638 8.45834 123.083 8.45834 123.083 9.56668C123.083 10.675 123.638 10.675 124.192 10.675Z" stroke="#0771DE" stroke-width="0.83125" stroke-miterlimit="10" stroke-linecap="round" stroke-linejoin="round"/>
<path d="M127.517 9.57748C129.362 9.67723 130.287 10.3589 130.287 12.8914V16.2164C130.287 18.4331 129.733 19.5414 126.962 19.5414H123.637C120.867 19.5414 120.312 18.4331 120.312 16.2164V12.8914C120.312 10.3644 121.238 9.67723 123.083 9.57748" stroke="#0771DE" stroke-width="0.83125" stroke-miterlimit="10" stroke-linecap="round" stroke-linejoin="round"/>
<path d="M29.2118 13.0045V5.65455H30.228V6.52109H30.315C30.3753 6.40973 30.4623 6.28097 30.576 6.1348C30.6897 5.98864 30.8475 5.86103 31.0493 5.75199C31.2511 5.64062 31.518 5.58494 31.8497 5.58494C32.2813 5.58494 32.6664 5.69399 33.0051 5.91207C33.3439 6.13016 33.6095 6.44453 33.8021 6.85518C33.997 7.26584 34.0944 7.76001 34.0944 8.33771C34.0944 8.91541 33.9981 9.41075 33.8056 9.82372C33.613 10.2344 33.3485 10.5511 33.0121 10.7738C32.6757 10.9942 32.2917 11.1044 31.8602 11.1044C31.5354 11.1044 31.2697 11.0499 31.0632 10.9408C30.8591 10.8318 30.699 10.7042 30.583 10.558C30.467 10.4119 30.3776 10.2819 30.315 10.1683H30.2524V13.0045H29.2118ZM30.2315 8.32727C30.2315 8.70312 30.286 9.03258 30.395 9.31562C30.5041 9.59867 30.6618 9.82024 30.8683 9.98033C31.0748 10.1381 31.3277 10.217 31.627 10.217C31.9379 10.217 32.1977 10.1346 32.4065 9.96989C32.6154 9.80284 32.7731 9.57663 32.8798 9.29126C32.9889 9.00589 33.0434 8.68456 33.0434 8.32727C33.0434 7.97462 32.99 7.65793 32.8833 7.3772C32.7789 7.09647 32.6212 6.87491 32.41 6.7125C32.2012 6.55009 31.9402 6.46889 31.627 6.46889C31.3254 6.46889 31.0702 6.54661 30.8614 6.70206C30.6549 6.8575 30.4983 7.07443 30.3916 7.35284C30.2848 7.63125 30.2315 7.95606 30.2315 8.32727ZM37.2613 11.1044C36.8298 11.1044 36.4446 10.9942 36.1059 10.7738C35.7695 10.5511 35.505 10.2344 35.3124 9.82372C35.1222 9.41075 35.0271 8.91541 35.0271 8.33771C35.0271 7.76001 35.1234 7.26584 35.3159 6.85518C35.5108 6.44453 35.7776 6.13016 36.1163 5.91207C36.4551 5.69399 36.8391 5.58494 37.2683 5.58494C37.6 5.58494 37.8668 5.64062 38.0687 5.75199C38.2729 5.86103 38.4306 5.98864 38.542 6.1348C38.6557 6.28097 38.7438 6.40973 38.8065 6.52109H38.8691V3.87273H39.9097V11H38.8935V10.1683H38.8065C38.7438 10.2819 38.6534 10.4119 38.535 10.558C38.419 10.7042 38.2589 10.8318 38.0548 10.9408C37.8506 11.0499 37.5861 11.1044 37.2613 11.1044ZM37.491 10.217C37.7903 10.217 38.0432 10.1381 38.2497 9.98033C38.4585 9.82024 38.6162 9.59867 38.723 9.31562C38.832 9.03258 38.8865 8.70312 38.8865 8.32727C38.8865 7.95606 38.8332 7.63125 38.7264 7.35284C38.6197 7.07443 38.4631 6.8575 38.2566 6.70206C38.0501 6.54661 37.7949 6.46889 37.491 6.46889C37.1778 6.46889 36.9168 6.55009 36.708 6.7125C36.4992 6.87491 36.3414 7.09647 36.2347 7.3772C36.1303 7.65793 36.0781 7.97462 36.0781 8.32727C36.0781 8.68456 36.1314 9.00589 36.2382 9.29126C36.3449 9.57663 36.5026 9.80284 36.7114 9.96989C36.9226 10.1346 37.1824 10.217 37.491 10.217ZM43.9388 5.65455V6.48977H40.918V5.65455H43.9388ZM41.7463 11V5.03508C41.7463 4.70099 41.8194 4.42374 41.9655 4.20334C42.1117 3.98061 42.3054 3.81473 42.5467 3.70568C42.788 3.59432 43.0502 3.53864 43.3332 3.53864C43.542 3.53864 43.7207 3.55604 43.8692 3.59084C44.0177 3.62332 44.1279 3.65348 44.1998 3.68132L43.9562 4.52351C43.9075 4.50959 43.8448 4.49335 43.7682 4.47479C43.6917 4.45391 43.5989 4.44347 43.4898 4.44347C43.2369 4.44347 43.056 4.50611 42.9469 4.63139C42.8402 4.75668 42.7869 4.93764 42.7869 5.17429V11H41.7463ZM45.698 11.0661C45.5077 11.0661 45.3442 10.9988 45.2073 10.8643C45.0704 10.7274 45.0019 10.5627 45.0019 10.3701C45.0019 10.1799 45.0704 10.0174 45.2073 9.88288C45.3442 9.746 45.5077 9.67756 45.698 9.67756C45.8882 9.67756 46.0518 9.746 46.1887 9.88288C46.3256 10.0174 46.394 10.1799 46.394 10.3701C46.394 10.4977 46.3615 10.6149 46.2966 10.7216C46.2339 10.826 46.1504 10.9095 46.046 10.9722C45.9416 11.0348 45.8256 11.0661 45.698 11.0661ZM47.7057 8.6284C47.7057 8.24293 47.7677 7.913 47.8919 7.6386C48.016 7.3642 48.1891 7.14207 48.4113 6.9722C48.6399 6.7958 48.9078 6.6684 49.2149 6.59C49.5285 6.50507 49.8715 6.4626 50.2439 6.4626C50.3288 6.4626 50.4268 6.46587 50.5379 6.4724C50.6489 6.47893 50.7567 6.48873 50.8613 6.5018C50.9723 6.51487 51.0769 6.5312 51.1749 6.5508C51.2729 6.56387 51.3578 6.5802 51.4297 6.5998C51.495 6.61287 51.5342 6.63573 51.5473 6.6684C51.5669 6.69453 51.5767 6.73373 51.5767 6.786V9.5398C51.5767 9.80113 51.6387 9.971 51.7629 10.0494C51.887 10.1213 52.0536 10.1572 52.2627 10.1572H52.4881V11H52.1549C51.8609 11 51.6126 10.9575 51.4101 10.8726C51.2141 10.7877 51.0638 10.6407 50.9593 10.4316C50.8482 10.5753 50.6751 10.6799 50.4399 10.7452C50.2112 10.804 49.9597 10.8334 49.6853 10.8334H49.5971C48.9895 10.8334 48.5223 10.6668 48.1957 10.3336C47.869 10.0004 47.7057 9.51693 47.7057 8.8832V8.6284ZM48.5289 8.7754C48.5289 9.1674 48.6171 9.47447 48.7935 9.6966C48.9699 9.9122 49.2704 10.02 49.6951 10.02H49.8813C49.9793 10.02 50.0805 10.0135 50.1851 10.0004C50.2896 9.98733 50.3843 9.9612 50.4693 9.922C50.5542 9.8828 50.6228 9.83053 50.6751 9.7652C50.7273 9.69333 50.7535 9.60513 50.7535 9.5006V7.276C50.6228 7.26293 50.5085 7.25313 50.4105 7.2466C50.3125 7.24007 50.221 7.2368 50.1361 7.2368C49.9009 7.2368 49.6853 7.2564 49.4893 7.2956C49.2933 7.3348 49.1234 7.40667 48.9797 7.5112C48.8425 7.6092 48.7314 7.7464 48.6465 7.9228C48.5681 8.09267 48.5289 8.30827 48.5289 8.5696V8.7754ZM48.5485 4.6496C48.5485 4.58427 48.5681 4.532 48.6073 4.4928C48.653 4.4536 48.7085 4.434 48.7739 4.434H49.1561C49.2214 4.434 49.2737 4.4536 49.3129 4.4928C49.3586 4.532 49.3815 4.58427 49.3815 4.6496V5.1788C49.3815 5.2376 49.3586 5.2866 49.3129 5.3258C49.2671 5.365 49.2149 5.3846 49.1561 5.3846H48.7739C48.7085 5.3846 48.653 5.365 48.6073 5.3258C48.5681 5.2866 48.5485 5.2376 48.5485 5.1788V4.6496ZM50.1459 4.6496C50.1459 4.58427 50.1687 4.532 50.2145 4.4928C50.2667 4.4536 50.3223 4.434 50.3811 4.434H50.7633C50.8221 4.434 50.8743 4.4536 50.9201 4.4928C50.9658 4.532 50.9887 4.58427 50.9887 4.6496V5.1788C50.9887 5.2376 50.9658 5.2866 50.9201 5.3258C50.8743 5.365 50.8221 5.3846 50.7633 5.3846H50.3811C50.3223 5.3846 50.2667 5.365 50.2145 5.3258C50.1687 5.2866 50.1459 5.2376 50.1459 5.1788V4.6496ZM52.0939 10.314C52.0939 10.2617 52.1266 10.2225 52.1919 10.1964C52.2573 10.1703 52.3357 10.1572 52.4271 10.1572H56.2001C56.2655 10.1572 56.3602 10.1572 56.4843 10.1572C56.6085 10.1572 56.7359 10.1572 56.8665 10.1572C57.0037 10.1572 57.1344 10.1572 57.2585 10.1572C57.3827 10.1507 57.4807 10.1441 57.5525 10.1376C57.5721 9.824 57.5819 9.50713 57.5819 9.187C57.5819 8.8342 57.5297 8.54347 57.4251 8.3148C57.3206 8.0796 57.1736 7.89667 56.9841 7.766C56.7947 7.6288 56.566 7.53407 56.2981 7.4818C56.0303 7.42953 55.733 7.4034 55.4063 7.4034C55.2103 7.4034 55.0045 7.40667 54.7889 7.4132C54.5799 7.4132 54.3839 7.4132 54.2009 7.4132C54.018 7.4132 53.8612 7.41647 53.7305 7.423C53.5999 7.423 53.5149 7.423 53.4757 7.423C53.3647 7.423 53.2993 7.374 53.2797 7.276C53.2732 7.26293 53.2699 7.23027 53.2699 7.178C53.2699 7.1192 53.2699 7.08327 53.2699 7.0702C53.2699 6.9134 53.283 6.76313 53.3091 6.6194C53.3353 6.47567 53.3712 6.32867 53.4169 6.1784C53.4692 6.02813 53.5313 5.87133 53.6031 5.708C53.6815 5.54467 53.773 5.36827 53.8775 5.1788L54.6125 3.8362C54.6452 3.78393 54.6779 3.7382 54.7105 3.699C54.7497 3.6598 54.8053 3.6402 54.8771 3.6402H55.3377C55.39 3.6402 55.4259 3.65327 55.4455 3.6794C55.4717 3.699 55.4847 3.72513 55.4847 3.7578C55.4847 3.79047 55.4749 3.8264 55.4553 3.8656L54.5341 5.61C54.4231 5.81253 54.3283 6.0118 54.2499 6.2078C54.1781 6.4038 54.1389 6.54427 54.1323 6.6292C54.4525 6.61613 54.7171 6.60633 54.9261 6.5998C55.1352 6.59327 55.3247 6.59 55.4945 6.59C56.4615 6.59 57.1867 6.7958 57.6701 7.2074C58.1601 7.61247 58.4051 8.27887 58.4051 9.2066V9.3732C58.4051 9.46467 58.4019 9.57573 58.3953 9.7064C58.3953 9.83053 58.3921 9.95793 58.3855 10.0886C58.3855 10.2193 58.379 10.3467 58.3659 10.4708C58.3594 10.5884 58.3529 10.6831 58.3463 10.755C58.3267 10.8791 58.2549 10.9445 58.1307 10.951C58.0262 10.9641 57.8955 10.9739 57.7387 10.9804C57.5819 10.9804 57.4121 10.9837 57.2291 10.9902C57.0527 10.9967 56.8731 11 56.6901 11C56.5072 11 56.3373 11 56.1805 11H52.4271C52.3357 11 52.2573 10.9869 52.1919 10.9608C52.1266 10.9281 52.0939 10.8857 52.0939 10.8334V10.314ZM58.7366 12.666C58.7366 12.5745 58.7922 12.5288 58.9032 12.5288H59.109C59.3246 12.5288 59.501 12.519 59.6382 12.4994C59.7754 12.4798 59.8865 12.4373 59.9714 12.372C60.0564 12.3067 60.1152 12.2087 60.1478 12.078C60.1805 11.9539 60.1968 11.784 60.1968 11.5684V7.227C60.1968 7.17473 60.2132 7.13227 60.2458 7.0996C60.2785 7.0604 60.321 7.0408 60.3732 7.0408H60.8534C60.8992 7.0408 60.9384 7.0604 60.971 7.0996C61.0037 7.13227 61.02 7.17473 61.02 7.227V10.1572H61.9216V11H61.0102V11.6272C61.0102 11.8363 60.9972 12.029 60.971 12.2054C60.9449 12.3818 60.8959 12.5353 60.824 12.666C60.6934 12.8947 60.5104 13.0547 60.2752 13.1462C60.0466 13.2377 59.7428 13.2834 59.3638 13.2834C59.3312 13.2834 59.2593 13.2801 59.1482 13.2736C59.0437 13.2671 58.9588 13.2573 58.8934 13.2442C58.8281 13.2311 58.7856 13.2115 58.766 13.1854C58.7464 13.1658 58.7366 13.1331 58.7366 13.0874V12.666ZM64.4605 5.316C64.4605 5.25067 64.4801 5.1984 64.5193 5.1592C64.565 5.11347 64.6205 5.0906 64.6859 5.0906H65.0681C65.1334 5.0906 65.1857 5.11347 65.2249 5.1592C65.2706 5.1984 65.2935 5.25067 65.2935 5.316V5.806C65.2935 5.8648 65.2706 5.9138 65.2249 5.953C65.1791 5.9922 65.1269 6.0118 65.0681 6.0118H64.6859C64.6205 6.0118 64.565 5.9922 64.5193 5.953C64.4801 5.9138 64.4605 5.8648 64.4605 5.806V5.316ZM66.0579 5.316C66.0579 5.25067 66.0807 5.1984 66.1265 5.1592C66.1787 5.11347 66.2343 5.0906 66.2931 5.0906H66.6753C66.7341 5.0906 66.7863 5.11347 66.8321 5.1592C66.8778 5.1984 66.9007 5.25067 66.9007 5.316V5.806C66.9007 5.8648 66.8778 5.9138 66.8321 5.953C66.7863 5.9922 66.7341 6.0118 66.6753 6.0118H66.2931C66.2343 6.0118 66.1787 5.9922 66.1265 5.953C66.0807 5.9138 66.0579 5.8648 66.0579 5.806V5.316ZM65.2837 4.1008C65.2837 4.042 65.3065 3.993 65.3523 3.9538C65.398 3.9146 65.4503 3.895 65.5091 3.895H65.8717C65.9305 3.895 65.9827 3.9146 66.0285 3.9538C66.0742 3.993 66.0971 4.042 66.0971 4.1008V4.5418C66.0971 4.60713 66.0709 4.6594 66.0187 4.6986C65.9729 4.73127 65.9207 4.7476 65.8619 4.7476H65.4993C65.4405 4.7476 65.3882 4.73127 65.3425 4.6986C65.3033 4.6594 65.2837 4.60713 65.2837 4.5418V4.1008ZM61.5303 10.2846C61.5303 10.2454 61.5629 10.216 61.6283 10.1964C61.6936 10.1703 61.772 10.1572 61.8635 10.1572H62.2359C62.3012 10.1572 62.3731 10.1539 62.4515 10.1474C62.5299 10.1409 62.6017 10.1278 62.6671 10.1082C62.7389 10.0821 62.7977 10.0461 62.8435 10.0004C62.8957 9.94813 62.9219 9.87953 62.9219 9.7946V7.6778C62.9219 7.62553 62.9382 7.5798 62.9709 7.5406C63.0035 7.5014 63.046 7.4818 63.0983 7.4818H63.5491C63.6013 7.4818 63.6438 7.5014 63.6765 7.5406C63.7091 7.5798 63.7255 7.62553 63.7255 7.6778V9.9416C63.7451 9.99387 63.7843 10.0363 63.8431 10.069C63.9084 10.0951 63.977 10.118 64.0489 10.1376C64.1273 10.1507 64.2057 10.1605 64.2841 10.167C64.3625 10.1735 64.4311 10.1768 64.4899 10.1768H64.6957C64.7545 10.1768 64.8198 10.1735 64.8917 10.167C64.9701 10.1539 65.0419 10.1376 65.1073 10.118C65.1726 10.0919 65.2281 10.0559 65.2739 10.0102C65.3196 9.96447 65.3425 9.9024 65.3425 9.824V7.3446C65.3425 7.29233 65.3588 7.24987 65.3915 7.2172C65.4307 7.178 65.4764 7.1584 65.5287 7.1584H65.9795C66.0317 7.1584 66.0742 7.178 66.1069 7.2172C66.1395 7.24987 66.1559 7.29233 66.1559 7.3446V9.9416C66.1951 10.0461 66.2931 10.1115 66.4499 10.1376C66.6067 10.1637 66.77 10.1768 66.9399 10.1768H67.0673C67.1261 10.1768 67.1947 10.1735 67.2731 10.167C67.358 10.1605 67.4364 10.1474 67.5083 10.1278C67.5801 10.1017 67.6389 10.0657 67.6847 10.02C67.7369 9.96773 67.7631 9.9024 67.7631 9.824V6.9722C67.7631 6.91993 67.7794 6.87747 67.8121 6.8448C67.8513 6.8056 67.897 6.786 67.9493 6.786H68.4099C68.4621 6.786 68.5046 6.8056 68.5373 6.8448C68.5699 6.87747 68.5863 6.91993 68.5863 6.9722V9.922C68.6059 9.97427 68.6483 10.0167 68.7137 10.0494C68.779 10.0755 68.8509 10.0984 68.9293 10.118C69.0077 10.1311 69.0861 10.1409 69.1645 10.1474C69.2429 10.1539 69.3115 10.1572 69.3703 10.1572H69.5565V11H69.3899C69.2135 11 69.0109 10.9804 68.7823 10.9412C68.5536 10.8955 68.3543 10.8073 68.1845 10.6766C68.0342 10.8073 67.8545 10.8955 67.6455 10.9412C67.4364 10.9804 67.2371 11 67.0477 11H66.8909C66.6622 11 66.4564 10.9804 66.2735 10.9412C66.0971 10.8955 65.9207 10.8073 65.7443 10.6766C65.4829 10.8922 65.104 11 64.6075 11H64.4409C64.271 11 64.0815 10.9804 63.8725 10.9412C63.6699 10.8955 63.4935 10.8073 63.3433 10.6766C63.2649 10.7485 63.1734 10.804 63.0689 10.8432C62.9709 10.8824 62.8696 10.9151 62.7651 10.9412C62.6605 10.9673 62.556 10.9837 62.4515 10.9902C62.3535 10.9967 62.262 11 62.1771 11H61.8635C61.772 11 61.6936 10.9902 61.6283 10.9706C61.5629 10.9445 61.5303 10.9085 61.5303 10.8628V10.2846ZM69.1674 10.2846C69.1674 10.2454 69.2 10.216 69.2654 10.1964C69.3307 10.1703 69.4091 10.1572 69.5006 10.1572H70.2846C70.474 10.1572 70.5916 10.1409 70.6374 10.1082C70.6896 10.0755 70.7158 9.97427 70.7158 9.8044V3.8264C70.7158 3.77413 70.7321 3.73167 70.7648 3.699C70.804 3.6598 70.8497 3.6402 70.902 3.6402H71.3822C71.4344 3.6402 71.4769 3.6598 71.5096 3.699C71.5422 3.73167 71.5586 3.77413 71.5586 3.8264V9.481C71.5586 9.5594 71.5586 9.6476 71.5586 9.7456C71.5586 9.8436 71.5553 9.94487 71.5488 10.0494C71.5488 10.1539 71.5455 10.2552 71.539 10.3532C71.5324 10.4512 71.5226 10.5394 71.5096 10.6178C71.4965 10.6831 71.4769 10.7387 71.4508 10.7844C71.4246 10.8301 71.3724 10.8693 71.294 10.902C71.2417 10.9216 71.1666 10.9379 71.0686 10.951C70.9706 10.9575 70.8628 10.9673 70.7452 10.9804C70.6276 10.9869 70.5034 10.9935 70.3728 11C70.2486 11 70.131 11 70.02 11H69.5006C69.4091 11 69.3307 10.9902 69.2654 10.9706C69.2 10.9445 69.1674 10.9085 69.1674 10.8628V10.2846ZM73.2263 3.8264C73.2263 3.77413 73.2427 3.7284 73.2753 3.6892C73.3145 3.65 73.3603 3.6304 73.4125 3.6304H73.8927C73.945 3.6304 73.9875 3.65 74.0201 3.6892C74.0528 3.7284 74.0691 3.77413 74.0691 3.8264V10.804C74.0691 10.8563 74.0528 10.902 74.0201 10.9412C73.9875 10.9804 73.945 11 73.8927 11H73.4125C73.3603 11 73.3145 10.9804 73.2753 10.9412C73.2427 10.902 73.2263 10.8563 73.2263 10.804V3.8264ZM77.9175 11.294C77.9175 11.1699 77.9241 11.0131 77.9371 10.8236C77.9502 10.6341 77.9633 10.4871 77.9763 10.3826C77.9894 10.3173 78.009 10.2683 78.0351 10.2356C78.0678 10.1964 78.1201 10.1768 78.1919 10.1768C78.2311 10.1768 78.2867 10.1768 78.3585 10.1768C78.4304 10.1703 78.5088 10.167 78.5937 10.167C78.6852 10.1605 78.7767 10.1572 78.8681 10.1572C78.9596 10.1572 79.0413 10.1572 79.1131 10.1572H81.9159L81.5435 9.3046L81.3279 8.795C81.2169 8.54673 81.0927 8.33113 80.9555 8.1482C80.8249 7.95873 80.6713 7.8052 80.4949 7.6876C80.3251 7.56347 80.1291 7.472 79.9069 7.4132C79.6913 7.34787 79.4431 7.3152 79.1621 7.3152C79.136 7.3152 79.0935 7.31847 79.0347 7.325C78.9825 7.325 78.9204 7.32827 78.8485 7.3348C78.7767 7.34133 78.7048 7.34787 78.6329 7.3544C78.5611 7.3544 78.4957 7.35767 78.4369 7.3642C78.2997 7.37727 78.2311 7.32827 78.2311 7.2172V6.8252C78.2311 6.77293 78.2409 6.73373 78.2605 6.7076C78.2867 6.67493 78.3357 6.65207 78.4075 6.639C78.6885 6.5802 78.9792 6.5508 79.2797 6.5508C79.5999 6.5508 79.8971 6.58347 80.1715 6.6488C80.4525 6.7076 80.7138 6.82193 80.9555 6.9918C81.2038 7.15513 81.4357 7.3838 81.6513 7.6778C81.8669 7.96527 82.0695 8.33767 82.2589 8.795L82.3667 9.04L82.7783 10.0984C82.7914 10.1441 82.8012 10.1899 82.8077 10.2356C82.8208 10.2813 82.8273 10.3401 82.8273 10.412V10.7648C82.8273 10.8367 82.8077 10.8955 82.7685 10.9412C82.7293 10.9804 82.6542 11 82.5431 11H79.5345C79.4365 11 79.3059 11 79.1425 11C78.9792 11 78.8453 11.0033 78.7407 11.0098C78.7342 11.0947 78.7309 11.1666 78.7309 11.2254C78.7309 11.2907 78.7309 11.3397 78.7309 11.3724C78.7505 12.3132 79.1556 12.7836 79.9461 12.7836H79.9853C80.1029 12.7836 80.1617 12.8391 80.1617 12.9502V13.3226C80.1617 13.3814 80.1519 13.4239 80.1323 13.45C80.1127 13.4761 80.067 13.4957 79.9951 13.5088C79.9559 13.5153 79.9233 13.5186 79.8971 13.5186C79.871 13.5186 79.8514 13.5186 79.8383 13.5186C79.2111 13.5186 78.7342 13.3291 78.4075 12.9502C78.0809 12.5778 77.9175 12.0257 77.9175 11.294ZM80.2989 11.8036C80.2989 11.7383 80.3218 11.686 80.3675 11.6468C80.4133 11.6076 80.4655 11.588 80.5243 11.588H80.8967C80.9555 11.588 81.0078 11.6076 81.0535 11.6468C81.1058 11.686 81.1319 11.7383 81.1319 11.8036V12.2544C81.1319 12.3132 81.1058 12.3622 81.0535 12.4014C81.0078 12.4471 80.9555 12.47 80.8967 12.47H80.5243C80.4655 12.47 80.4133 12.4471 80.3675 12.4014C80.3218 12.3622 80.2989 12.3132 80.2989 12.2544V11.8036ZM84.2151 12.6464C84.2151 12.5549 84.2674 12.5092 84.3719 12.5092C84.483 12.5092 84.6235 12.5092 84.7933 12.5092C84.9632 12.5157 85.1004 12.519 85.2049 12.519C85.4663 12.519 85.6982 12.5027 85.9007 12.47C86.1098 12.4439 86.2862 12.3883 86.4299 12.3034C86.5802 12.225 86.6945 12.1107 86.7729 11.9604C86.8513 11.8167 86.8938 11.6272 86.9003 11.392V11H85.9203C85.2605 11 84.7541 10.8301 84.4013 10.4904C84.0485 10.1507 83.8721 9.6378 83.8721 8.9518V8.7068C83.8721 8.0208 84.0747 7.47853 84.4797 7.08C84.8848 6.68147 85.4597 6.4822 86.2045 6.4822C86.4659 6.4822 86.7174 6.49527 86.9591 6.5214C87.2074 6.541 87.4165 6.57693 87.5863 6.6292C87.6451 6.6488 87.6843 6.67167 87.7039 6.6978C87.7235 6.7174 87.7333 6.75333 87.7333 6.8056V10.1572H88.5859V11H87.7235V11.3724C87.7105 11.7383 87.6451 12.0421 87.5275 12.2838C87.4099 12.5321 87.2499 12.7281 87.0473 12.8718C86.8448 13.0221 86.5998 13.1266 86.3123 13.1854C86.0314 13.2507 85.7211 13.2834 85.3813 13.2834C85.316 13.2834 85.2311 13.2801 85.1265 13.2736C85.0285 13.2736 84.9273 13.2703 84.8227 13.2638C84.7247 13.2638 84.6333 13.2605 84.5483 13.254C84.4634 13.2475 84.4046 13.2409 84.3719 13.2344C84.3066 13.2213 84.2641 13.2017 84.2445 13.1756C84.2249 13.156 84.2151 13.1233 84.2151 13.0776V12.6464ZM84.6953 8.8538C84.6953 9.31767 84.7933 9.65413 84.9893 9.8632C85.1853 10.0723 85.5022 10.1768 85.9399 10.1768H86.9101V7.2956C86.7795 7.28253 86.6521 7.27273 86.5279 7.2662C86.4038 7.25967 86.2601 7.2564 86.0967 7.2564C85.6655 7.2564 85.3225 7.37727 85.0677 7.619C84.8195 7.86073 84.6953 8.207 84.6953 8.6578V8.8538ZM88.1932 10.2846C88.1932 10.2454 88.2258 10.216 88.2912 10.1964C88.3565 10.1703 88.4349 10.1572 88.5264 10.1572H89.3104C89.4998 10.1572 89.6174 10.1409 89.6632 10.1082C89.7154 10.0755 89.7416 9.97427 89.7416 9.8044V3.8264C89.7416 3.77413 89.7579 3.73167 89.7906 3.699C89.8298 3.6598 89.8755 3.6402 89.9278 3.6402H90.408C90.4602 3.6402 90.5027 3.6598 90.5354 3.699C90.568 3.73167 90.5844 3.77413 90.5844 3.8264V9.481C90.5844 9.5594 90.5844 9.6476 90.5844 9.7456C90.5844 9.8436 90.5811 9.94487 90.5746 10.0494C90.5746 10.1539 90.5713 10.2552 90.5648 10.3532C90.5582 10.4512 90.5484 10.5394 90.5354 10.6178C90.5223 10.6831 90.5027 10.7387 90.4766 10.7844C90.4504 10.8301 90.3982 10.8693 90.3198 10.902C90.2675 10.9216 90.1924 10.9379 90.0944 10.951C89.9964 10.9575 89.8886 10.9673 89.771 10.9804C89.6534 10.9869 89.5292 10.9935 89.3986 11C89.2744 11 89.1568 11 89.0458 11H88.5264C88.4349 11 88.3565 10.9902 88.2912 10.9706C88.2258 10.9445 88.1932 10.9085 88.1932 10.8628V10.2846ZM92.2521 3.8264C92.2521 3.77413 92.2684 3.7284 92.3011 3.6892C92.3403 3.65 92.386 3.6304 92.4383 3.6304H92.9185C92.9708 3.6304 93.0132 3.65 93.0459 3.6892C93.0786 3.7284 93.0949 3.77413 93.0949 3.8264V9.579C93.0949 9.70967 93.108 9.8142 93.1341 9.8926C93.1668 9.96447 93.2092 10.02 93.2615 10.0592C93.3203 10.0984 93.3889 10.1245 93.4673 10.1376C93.5522 10.1507 93.647 10.1572 93.7515 10.1572H93.9965V11H93.5359C93.3268 11 93.1439 10.9837 92.9871 10.951C92.8303 10.9118 92.6964 10.8465 92.5853 10.755C92.4742 10.657 92.3893 10.5296 92.3305 10.3728C92.2782 10.216 92.2521 10.0135 92.2521 9.7652V3.8264ZM93.6004 10.2846C93.6004 10.2454 93.633 10.216 93.6984 10.1964C93.7637 10.1703 93.8421 10.1572 93.9336 10.1572H94.3746C94.4399 10.1572 94.5118 10.1539 94.5902 10.1474C94.6686 10.1409 94.7437 10.1278 94.8156 10.1082C94.8874 10.0821 94.9462 10.0461 94.992 10.0004C95.0442 9.94813 95.0704 9.87953 95.0704 9.7946V7.227C95.0704 7.17473 95.0867 7.13227 95.1194 7.0996C95.1586 7.0604 95.2043 7.0408 95.2566 7.0408H95.7074C95.7596 7.0408 95.8021 7.0604 95.8348 7.0996C95.874 7.13227 95.8936 7.17473 95.8936 7.227V9.922C95.9132 9.97427 95.9524 10.0167 96.0112 10.0494C96.0765 10.0755 96.1451 10.0984 96.217 10.118C96.2954 10.1311 96.3738 10.1409 96.4522 10.1474C96.5306 10.1539 96.5992 10.1572 96.658 10.1572H96.7952V11H96.6776C96.475 11 96.2562 10.9804 96.021 10.9412C95.7923 10.8955 95.6028 10.8073 95.4526 10.6766C95.2892 10.8073 95.0932 10.8955 94.8646 10.9412C94.6424 10.9804 94.4399 11 94.257 11H93.9336C93.8421 11 93.7637 10.9902 93.6984 10.9706C93.633 10.9445 93.6004 10.9085 93.6004 10.8628V10.2846ZM94.2374 5.0318C94.2374 4.96647 94.257 4.9142 94.2962 4.875C94.3419 4.8358 94.3974 4.8162 94.4628 4.8162H94.845C94.9103 4.8162 94.9626 4.8358 95.0018 4.875C95.0475 4.9142 95.0704 4.96647 95.0704 5.0318V5.561C95.0704 5.6198 95.0475 5.6688 95.0018 5.708C94.956 5.7472 94.9038 5.7668 94.845 5.7668H94.4628C94.3974 5.7668 94.3419 5.7472 94.2962 5.708C94.257 5.6688 94.2374 5.6198 94.2374 5.561V5.0318ZM95.8348 5.0318C95.8348 4.96647 95.8576 4.9142 95.9034 4.875C95.9556 4.8358 96.0112 4.8162 96.07 4.8162H96.4522C96.511 4.8162 96.5632 4.8358 96.609 4.875C96.6547 4.9142 96.6776 4.96647 96.6776 5.0318V5.561C96.6776 5.6198 96.6547 5.6688 96.609 5.708C96.5632 5.7472 96.511 5.7668 96.4522 5.7668H96.07C96.0112 5.7668 95.9556 5.7472 95.9034 5.708C95.8576 5.6688 95.8348 5.6198 95.8348 5.561V5.0318ZM96.4045 10.314C96.4045 10.2617 96.4371 10.2225 96.5025 10.1964C96.5678 10.1703 96.6462 10.1572 96.7377 10.1572H100.511C100.576 10.1572 100.671 10.1572 100.795 10.1572C100.919 10.1572 101.046 10.1572 101.177 10.1572C101.314 10.1572 101.445 10.1572 101.569 10.1572C101.693 10.1507 101.791 10.1441 101.863 10.1376C101.883 9.824 101.892 9.50713 101.892 9.187C101.892 8.8342 101.84 8.54347 101.736 8.3148C101.631 8.0796 101.484 7.89667 101.295 7.766C101.105 7.6288 100.877 7.53407 100.609 7.4818C100.341 7.42953 100.044 7.4034 99.7169 7.4034C99.5209 7.4034 99.3151 7.40667 99.0995 7.4132C98.8904 7.4132 98.6944 7.4132 98.5115 7.4132C98.3285 7.4132 98.1717 7.41647 98.0411 7.423C97.9104 7.423 97.8255 7.423 97.7863 7.423C97.6752 7.423 97.6099 7.374 97.5903 7.276C97.5837 7.26293 97.5805 7.23027 97.5805 7.178C97.5805 7.1192 97.5805 7.08327 97.5805 7.0702C97.5805 6.9134 97.5935 6.76313 97.6197 6.6194C97.6458 6.47567 97.6817 6.32867 97.7275 6.1784C97.7797 6.02813 97.8418 5.87133 97.9137 5.708C97.9921 5.54467 98.0835 5.36827 98.1881 5.1788L98.9231 3.8362C98.9557 3.78393 98.9884 3.7382 99.0211 3.699C99.0603 3.6598 99.1158 3.6402 99.1877 3.6402H99.6483C99.7005 3.6402 99.7365 3.65327 99.7561 3.6794C99.7822 3.699 99.7953 3.72513 99.7953 3.7578C99.7953 3.79047 99.7855 3.8264 99.7659 3.8656L98.8447 5.61C98.7336 5.81253 98.6389 6.0118 98.5605 6.2078C98.4886 6.4038 98.4494 6.54427 98.4429 6.6292C98.763 6.61613 99.0276 6.60633 99.2367 6.5998C99.4457 6.59327 99.6352 6.59 99.8051 6.59C100.772 6.59 101.497 6.7958 101.981 7.2074C102.471 7.61247 102.716 8.27887 102.716 9.2066V9.3732C102.716 9.46467 102.712 9.57573 102.706 9.7064C102.706 9.83053 102.703 9.95793 102.696 10.0886C102.696 10.2193 102.69 10.3467 102.676 10.4708C102.67 10.5884 102.663 10.6831 102.657 10.755C102.637 10.8791 102.565 10.9445 102.441 10.951C102.337 10.9641 102.206 10.9739 102.049 10.9804C101.892 10.9804 101.723 10.9837 101.54 10.9902C101.363 10.9967 101.184 11 101.001 11C100.818 11 100.648 11 100.491 11H96.7377C96.6462 11 96.5678 10.9869 96.5025 10.9608C96.4371 10.9281 96.4045 10.8857 96.4045 10.8334V10.314Z" fill="black"/>
<path d="M87.8141 25.4V19.2909H89.9917C90.467 19.2909 90.8607 19.3774 91.1729 19.5504C91.4852 19.7234 91.7188 19.9601 91.8739 20.2604C92.029 20.5587 92.1066 20.8947 92.1066 21.2686C92.1066 21.6445 92.0281 21.9825 91.871 22.2828C91.7158 22.5811 91.4812 22.8177 91.167 22.9927C90.8548 23.1658 90.462 23.2523 89.9887 23.2523H88.4913V22.4707H89.9052C90.2055 22.4707 90.4491 22.419 90.636 22.3156C90.8229 22.2102 90.9602 22.067 91.0477 21.8861C91.1352 21.7051 91.1789 21.4993 91.1789 21.2686C91.1789 21.0379 91.1352 20.8331 91.0477 20.6541C90.9602 20.4751 90.8219 20.3349 90.633 20.2335C90.4461 20.1321 90.1995 20.0814 89.8933 20.0814H88.7359V25.4H87.8141ZM95.1649 25.4H93.1872V19.2909H95.2275C95.8261 19.2909 96.3402 19.4132 96.7697 19.6578C97.1993 19.9004 97.5284 20.2494 97.7571 20.7048C97.9877 21.1582 98.1031 21.7021 98.1031 22.3365C98.1031 22.9729 97.9868 23.5197 97.7541 23.9771C97.5234 24.4345 97.1893 24.7865 96.7518 25.0331C96.3143 25.2777 95.7853 25.4 95.1649 25.4ZM94.1089 24.5946H95.1142C95.5795 24.5946 95.9663 24.5071 96.2745 24.3321C96.5828 24.1551 96.8135 23.8996 96.9666 23.5655C97.1197 23.2294 97.1963 22.8197 97.1963 22.3365C97.1963 21.8572 97.1197 21.4506 96.9666 21.1165C96.8154 20.7824 96.5897 20.5288 96.2895 20.3558C95.9892 20.1828 95.6163 20.0963 95.1708 20.0963H94.1089V24.5946ZM99.2493 25.4V19.2909H103.038V20.0844H100.171V21.9457H102.766V22.7362H100.171V25.4H99.2493Z" fill="black" fill-opacity="0.4"/>
<path d="M60.9175 19.2074C61.1681 19.2094 61.4186 19.2571 61.6692 19.3506C61.9198 19.444 62.1485 19.5991 62.3553 19.8159C62.5621 20.0307 62.7282 20.324 62.8535 20.6959C62.9787 21.0677 63.0414 21.5341 63.0414 22.0949C63.0414 22.6378 62.9897 23.12 62.8863 23.5416C62.7848 23.9612 62.6377 24.3152 62.4448 24.6035C62.2539 24.8919 62.0212 25.1106 61.7468 25.2598C61.4743 25.4089 61.1661 25.4835 60.8221 25.4835C60.48 25.4835 60.1748 25.4159 59.9063 25.2807C59.6398 25.1435 59.4211 24.9535 59.25 24.7109C59.081 24.4663 58.9726 24.1829 58.9249 23.8608H59.6527C59.7184 24.1412 59.8486 24.3729 60.0435 24.5558C60.2404 24.7368 60.4999 24.8273 60.8221 24.8273C61.2934 24.8273 61.6652 24.6214 61.9377 24.2098C62.2121 23.7981 62.3493 23.2165 62.3493 22.4648H62.3016C62.1902 22.6318 62.058 22.776 61.9049 22.8973C61.7517 23.0186 61.5817 23.1121 61.3948 23.1777C61.2079 23.2433 61.009 23.2761 60.7982 23.2761C60.4482 23.2761 60.127 23.1896 59.8347 23.0166C59.5444 22.8416 59.3117 22.602 59.1367 22.2977C58.9637 21.9915 58.8772 21.6415 58.8772 21.2477C58.8772 20.8739 58.9607 20.5318 59.1277 20.2216C59.2968 19.9094 59.5334 19.6608 59.8377 19.4758C60.1439 19.2909 60.5039 19.2014 60.9175 19.2074ZM60.9175 19.8636C60.6669 19.8636 60.4412 19.9263 60.2404 20.0516C60.0415 20.1749 59.8834 20.3419 59.7661 20.5527C59.6508 20.7615 59.5931 20.9932 59.5931 21.2477C59.5931 21.5023 59.6488 21.7339 59.7601 21.9427C59.8735 22.1496 60.0276 22.3146 60.2225 22.4379C60.4194 22.5592 60.6431 22.6199 60.8936 22.6199C61.0826 22.6199 61.2586 22.5831 61.4216 22.5095C61.5847 22.4339 61.7269 22.3315 61.8482 22.2023C61.9715 22.071 62.0679 21.9229 62.1375 21.7578C62.2071 21.5908 62.2419 21.4168 62.2419 21.2358C62.2419 20.9972 62.1843 20.7734 62.0689 20.5646C61.9556 20.3558 61.7985 20.1868 61.5976 20.0575C61.3988 19.9283 61.1721 19.8636 60.9175 19.8636ZM64.2264 25.4V20.8182H64.9065V21.5341H64.9661C65.0616 21.2895 65.2157 21.0996 65.4285 20.9643C65.6413 20.8271 65.8968 20.7585 66.1951 20.7585C66.4974 20.7585 66.7489 20.8271 66.9498 20.9643C67.1526 21.0996 67.3107 21.2895 67.4241 21.5341H67.4718C67.5891 21.2974 67.7651 21.1095 67.9998 20.9703C68.2345 20.8291 68.5158 20.7585 68.844 20.7585C69.2536 20.7585 69.5887 20.8868 69.8492 21.1433C70.1097 21.3979 70.24 21.7946 70.24 22.3335V25.4H69.536V22.3335C69.536 21.9954 69.4435 21.7538 69.2586 21.6087C69.0737 21.4635 68.8559 21.3909 68.6053 21.3909C68.2832 21.3909 68.0336 21.4883 67.8566 21.6832C67.6796 21.8761 67.5911 22.1207 67.5911 22.417V25.4H66.8752V22.2619C66.8752 22.0014 66.7907 21.7916 66.6217 21.6325C66.4526 21.4714 66.2349 21.3909 65.9684 21.3909C65.7854 21.3909 65.6144 21.4396 65.4553 21.5371C65.2982 21.6345 65.171 21.7697 65.0735 21.9427C64.9781 22.1138 64.9303 22.3116 64.9303 22.5364V25.4H64.2264ZM71.6226 25.4V19.2909H72.3266V21.546H72.3862C72.4379 21.4665 72.5095 21.3651 72.601 21.2418C72.6945 21.1165 72.8277 21.0051 73.0007 20.9077C73.1757 20.8082 73.4124 20.7585 73.7107 20.7585C74.0965 20.7585 74.4365 20.855 74.7308 21.0479C75.0251 21.2408 75.2548 21.5142 75.4199 21.8682C75.5849 22.2222 75.6675 22.6398 75.6675 23.121C75.6675 23.6062 75.5849 24.0268 75.4199 24.3828C75.2548 24.7368 75.0261 25.0112 74.7338 25.2061C74.4415 25.399 74.1044 25.4954 73.7226 25.4954C73.4283 25.4954 73.1926 25.4467 73.0156 25.3493C72.8386 25.2499 72.7024 25.1375 72.607 25.0122C72.5115 24.8849 72.4379 24.7795 72.3862 24.696H72.3027V25.4H71.6226ZM72.3146 23.1091C72.3146 23.4551 72.3653 23.7604 72.4668 24.0249C72.5682 24.2874 72.7163 24.4932 72.9112 24.6423C73.1061 24.7895 73.3447 24.8631 73.6271 24.8631C73.9215 24.8631 74.1671 24.7855 74.3639 24.6304C74.5628 24.4733 74.7119 24.2625 74.8114 23.998C74.9128 23.7315 74.9635 23.4352 74.9635 23.1091C74.9635 22.7869 74.9138 22.4966 74.8144 22.2381C74.7169 21.9776 74.5688 21.7717 74.3699 21.6206C74.173 21.4675 73.9254 21.3909 73.6271 21.3909C73.3408 21.3909 73.1001 21.4635 72.9053 21.6087C72.7104 21.7518 72.5632 21.9527 72.4638 22.2112C72.3644 22.4677 72.3146 22.767 72.3146 23.1091Z" fill="black" fill-opacity="0.4"/>
<path d="M81.2837 25.4656C81.1027 25.4656 80.9476 25.402 80.8184 25.2747C80.6891 25.1474 80.6255 24.9923 80.6275 24.8094C80.6255 24.6304 80.6891 24.4773 80.8184 24.35C80.9476 24.2227 81.1027 24.1591 81.2837 24.1591C81.4587 24.1591 81.6108 24.2227 81.7401 24.35C81.8713 24.4773 81.938 24.6304 81.94 24.8094C81.938 24.9307 81.9061 25.041 81.8445 25.1405C81.7848 25.2399 81.7053 25.3195 81.6059 25.3791C81.5084 25.4368 81.401 25.4656 81.2837 25.4656Z" fill="black" fill-opacity="0.4"/>
</svg>
